:SAMPLES-PER-SECOND 30
:FULLY-SPECIFIED
:DEGREES
510
root  12.2985 33.6818 4.80734 12.5563 -70.9945 0.274384
RightUpLeg  -16.4706 -8.03073 4.78071
RightLeg  15.6303 -10.7721 -2.26143
RightFoot  -2.03527 -0.00107942 0.316889
RightToes  -20.9132 -0.0866078 -0.184124
Spine  7.99772 0.123693 -2.67384
Spine1  15.4487 1.08261 -6.105
HEad  -16.0465 -11.1018 24.0854
LeftShoulder1  0 -2.42657e-020 -4.95415e-022
LeftArm  -36.1123 8.00447 -80.3437
LeftForeArm  44.5603 -24.279 -4.53805
LeftHand  0.281681 -6.76722 -5.13672
RightShoulder  0 2.42657e-020 1.07489e-018
RightArm  -43.0801 -5.56188 84.8988
RightForeArm  47.3414 23.6271 4.39771
RightHand  -1.3957 25.1328 -5.88676
LeftUpLeg  -23.5662 1.86284 -2.46017
LeftLeg  12.1475 -6.86533 -1.02068
LeftFoot  6.91927 0.051779 -0.856474
LeftToes  -2.04058 1.28829e-006 1.15665e-007
511
root  12.1787 33.6679 4.88201 12.1865 -72.0343 0.211884
RightUpLeg  -16.8126 -6.36277 4.7076
RightLeg  18.2235 -10.8701 -2.79768
RightFoot  -4.73118 0.0198405 0.857947
RightToes  -20.5193 -0.0843723 -0.180984
Spine  7.88817 0.246556 -2.75984
Spine1  15.1986 1.39802 -6.39545
HEad  -14.8277 -11.1128 24.1573
LeftShoulder1  0 -2.42657e-020 -4.95415e-022
LeftArm  -36.6999 9.73208 -80.3897
LeftForeArm  43.1482 -26.4203 -5.00414
LeftHand  0.260112 -6.52949 -4.93278
RightShoulder  0 2.42657e-020 1.07489e-018
RightArm  -44.2264 -4.84601 85.2475
RightForeArm  48.5678 22.5654 4.17383
RightHand  -1.33118 24.968 -5.63865
LeftUpLeg  -23.4252 1.14143 -2.16568
LeftLeg  13.4148 -5.06954 -0.869912
LeftFoot  5.97378 0.0290063 -0.555912
LeftToes  -3.38224 1.28829e-006 1.15665e-007
512
root  11.943 33.609 4.94938 10.1201 -73.0769 1.71469
RightUpLeg  -17.0603 -7.4624 5.26662
RightLeg  23.1059 -10.5189 -3.68294
RightFoot  -6.55961 0.0481486 1.21786
RightToes  -22.2037 -0.094081 -0.1943
Spine  7.65994 0.267875 -3.05709
Spine1  14.735 1.47849 -6.98835
HEad  -13.5243 -11.2441 23.9283
LeftShoulder1  0 -2.42657e-020 -4.95415e-022
LeftArm  -38.2731 11.2785 -80.1727
LeftForeArm  43.39 -27.3803 -5.21764
LeftHand  0.275481 -6.79067 -5.01579
RightShoulder  0 2.42657e-020 1.07489e-018
RightArm  -44.6215 -4.32201 85.7813
RightForeArm  49.6758 21.46 3.9447
RightHand  -1.35406 25.0329 -5.7254
LeftUpLeg  -22.6827 0.248286 -2.37954
LeftLeg  14.2819 -3.0482 -0.571834
LeftFoot  4.78282 0.00927631 -0.272838
LeftToes  -3.79807 1.28829e-006 1.15665e-007
513
root  11.577 33.5693 4.98952 6.79156 -73.6163 3.71976
RightUpLeg  -15.8503 -8.20772 6.28687
RightLeg  28.84 -12.1024 -5.62619
RightFoot  -7.99807 0.101007 1.82244
RightToes  -20.1743 -0.0824326 -0.178222
Spine  7.68794 0.211767 -3.41836
Spine1  14.778 1.41936 -7.67334
HEad  -13.2924 -11.3132 23.8848
LeftShoulder1  0 -2.42657e-020 -4.95415e-022
LeftArm  -40.0023 11.9916 -79.5107
LeftForeArm  43.869 -27.3894 -5.21899
LeftHand  0.312311 -6.86159 -5.5815
RightShoulder  0 2.42657e-020 1.07489e-018
RightArm  -44.1292 -4.2245 86.5083
RightForeArm  49.6254 21.2165 3.89521
RightHand  -1.32608 24.9769 -5.61349
LeftUpLeg  -21.1321 1.14452 -2.85861
LeftLeg  15.3467 -3.50364 -0.724632
LeftFoot  3.49683 0.00531514 -0.2253
LeftToes  -5.47345 1.28829e-006 1.15665e-007
514
root  11.2524 33.544 4.96081 4.97791 -72.9619 4.67358
RightUpLeg  -14.1997 -9.53892 8.02577
RightLeg  31.7215 -13.5532 -7.118
RightFoot  -7.11391 0.0928165 1.87082
RightToes  -19.7933 -0.0803096 -0.175158
Spine  7.6633 -0.0851345 -3.56265
Spine1  14.7767 0.812183 -7.90093
HEad  -14.5558 -11.4352 23.7559
LeftShoulder1  0 -2.42657e-020 -4.95415e-022
LeftArm  -40.4654 11.7503 -78.5171
LeftForeArm  43.4336 -26.0989 -4.93298
LeftHand  0.314369 -6.70087 -5.74186
RightShoulder  0 2.42657e-020 1.07489e-018
RightArm  -43.4949 -4.72199 87.0103
RightForeArm  48.8918 21.8007 4.01568
RightHand  -1.26493 25.0853 -5.31255
LeftUpLeg  -20.7071 1.56149 -2.85086
LeftLeg  17.1393 -4.61292 -1.10453
LeftFoot  2.92412 0.00595505 -0.241648
LeftToes  -11.977 1.28829e-006 1.15665e-007
515
root  10.9812 33.4722 4.91975 3.29791 -71.8663 5.77847
RightUpLeg  -12.235 -11.606 9.35387
RightLeg  30.9865 -12.981 -6.61799
RightFoot  -5.02125 0.0373692 1.22997
RightToes  -24.4556 -0.107664 -0.211646
Spine  7.56913 -0.387484 -3.63033
Spine1  14.6536 0.154198 -7.94478
HEad  -16.2934 -11.925 23.7106
LeftShoulder1  0 -2.42657e-020 -4.95415e-022
LeftArm  -40.8946 10.5508 -77.6734
LeftForeArm  44.1076 -23.8482 -4.44734
LeftHand  0.307604 -6.54567 -5.7513
RightShoulder  0 2.42657e-020 1.07489e-018
RightArm  -42.6717 -5.54878 86.786
RightForeArm  48.1553 22.3876 4.13773
RightHand  -1.12846 25.3454 -4.6466
LeftUpLeg  -20.6583 2.28118 -3.23042
LeftLeg  18.7933 -5.97771 -1.61306
LeftFoot  2.18696 0.00514019 -0.229678
LeftToes  -9.30261 1.28829e-006 1.15665e-007
516
root  10.7988 33.3641 4.85235 1.31195 -71.0818 7.55923
RightUpLeg  -10.8226 -13.9854 10.0068
RightLeg  29.0468 -13.6668 -6.39255
RightFoot  -5.90073 0.0583073 1.50901
RightToes  -25.268 -0.11273 -0.21777
Spine  7.49975 -0.589897 -3.7898
Spine1  14.5168 -0.282029 -8.1451
HEad  -17.7547 -12.2689 23.8942
LeftShoulder1  0 -2.42657e-020 -4.95415e-022
LeftArm  -40.8585 8.5008 -76.6651
LeftForeArm  44.7424 -21.1463 -3.88709
LeftHand  0.301199 -6.46523 -5.7051
RightShoulder  0 2.42657e-020 1.07489e-018
RightArm  -42.6439 -5.96686 86.4259
RightForeArm  47.7862 22.5551 4.173
RightHand  -0.976684 25.2902 -3.9823
LeftUpLeg  -20.5932 -0.532677 -3.32154
LeftLeg  19.5706 -4.25203 -1.21134
LeftFoot  2.10325 4.31885e-006 -0.146754
LeftToes  -8.90777 1.28829e-006 1.15665e-007
517
root  10.6925 33.2524 4.72745 -0.444519 -71.1303 9.27014
RightUpLeg  -10.3793 -15.4973 10.2384
RightLeg  27.9705 -15.686 -6.95487
RightFoot  -7.35344 0.1155 2.17502
RightToes  -23.0428 -0.0990624 -0.200825
Spine  7.58991 -0.52948 -4.014
Spine1  14.6256 -0.190426 -8.36731
HEad  -18.65 -12.5197 24.246
LeftShoulder1  0 -2.42657e-020 -4.95415e-022
LeftArm  -39.8785 6.04455 -75.5941
LeftForeArm  45.0589 -20.5136 -3.75882
LeftHand  0.30055 -6.35115 -5.78941
RightShoulder  0 2.42657e-020 1.07489e-018
RightArm  -43.4757 -5.56591 86.176
RightForeArm  47.9255 22.0562 4.06977
RightHand  -1.02209 24.9662 -4.24544
LeftUpLeg  -20.978 -0.434177 -3.70128
LeftLeg  20.7632 -3.74021 -1.1508
LeftFoot  1.41741 -0.00467077 -0.0690968
LeftToes  -8.29816 1.28829e-006 1.15665e-007
518
root  10.6937 33.1719 4.53573 -1.62881 -71.5465 10.6609
RightUpLeg  -11.2706 -16.6573 10.1481
RightLeg  28.4878 -16.24 -7.36343
RightFoot  -9.08161 0.193485 2.81367
RightToes  -20.482 -0.0841619 -0.180686
Spine  7.81762 -0.481726 -4.18979
Spine1  14.9684 -0.121194 -8.47428
HEad  -19.3338 -12.4563 24.6712
LeftShoulder1  0 -2.42657e-020 -4.95415e-022
LeftArm  -38.5511 3.08496 -74.5291
LeftForeArm  45.3313 -20.2389 -3.70326
LeftHand  0.285718 -6.17793 -5.66707
RightShoulder  0 2.42657e-020 1.07489e-018
RightArm  -44.1437 -4.39088 85.9483
RightForeArm  48.9563 21.3359 3.92066
RightHand  -1.11018 24.5928 -4.72127
LeftUpLeg  -21.5891 0.432985 -3.84719
LeftLeg  21.5136 -4.10977 -1.3232
LeftFoot  1.34863 -0.00452369 -0.0663907
LeftToes  -9.29761 1.28829e-006 1.15665e-007
519
root  10.7765 33.1284 4.31918 -2.64783 -72.4572 12.3719
RightUpLeg  -13.4196 -17.4738 9.61595
RightLeg  30.4188 -15.2173 -7.53311
RightFoot  -10.3414 0.241977 3.05131
RightToes  -20.854 -0.0862704 -0.183653
Spine  8.04328 -0.485223 -4.28915
Spine1  15.3049 -0.186708 -8.39273
HEad  -19.692 -12.294 24.6125
LeftShoulder1  0 -2.42657e-020 -4.95415e-022
LeftArm  -36.9223 -0.018962 -73.6684
LeftForeArm  45.1621 -20.1208 -3.67986
LeftHand  0.249964 -5.92477 -5.20346
RightShoulder  0 2.42657e-020 1.07489e-018
RightArm  -44.0259 -2.89106 85.576
RightForeArm  50.1973 21.0588 3.8622
RightHand  -1.14247 24.4879 -4.89227
LeftUpLeg  -22.2821 1.51501 -4.00411
LeftLeg  21.3199 -4.26992 -1.35864
LeftFoot  1.65496 -0.00271467 -0.091432
LeftToes  -10.0192 1.28829e-006 1.15665e-007
520
root  10.8969 33.1069 4.05679 -2.9834 -73.351 13.2261
RightUpLeg  -15.518 -18.8058 8.76846
RightLeg  32.7211 -14.4877 -7.91108
RightFoot  -11.2355 0.281328 3.23725
RightToes  -21.2765 -0.0852846 -0.187006
Spine  8.38618 -0.632158 -4.15753
Spine1  15.8819 -0.581804 -7.84938
HEad  -19.6494 -12.1997 24.2756
LeftShoulder1  0 -2.42657e-020 -4.95415e-022
LeftArm  -35.909 -3.12316 -73.2752
LeftForeArm  45.7832 -20.0489 -3.66456
LeftHand  0.224781 -6.01595 -4.65102
RightShoulder  0 2.42657e-020 1.07489e-018
RightArm  -42.4507 -1.63245 84.9705
RightForeArm  50.1192 21.6356 3.97976
RightHand  -1.18256 24.4895 -5.07628
LeftUpLeg  -22.8968 2.59206 -3.80915
LeftLeg  21.0663 -4.53977 -1.42205
LeftFoot  2.06477 0.00026979 -0.138567
LeftToes  -10.9845 1.28829e-006 1.15665e-007
521
root  11.0519 33.0824 3.77776 -3.01062 -74.3434 13.8526
RightUpLeg  -17.7179 -20.2004 7.45404
RightLeg  35.1556 -13.9775 -8.41742
RightFoot  -12.7274 0.365975 3.65836
RightToes  -20.1037 -0.0828573 -0.177655
Spine  8.67816 -0.857795 -3.91344
Spine1  16.3609 -1.17021 -7.09697
HEad  -19.4094 -12.1113 23.9693
LeftShoulder1  0 -2.42657e-020 -4.95415e-022
LeftArm  -33.8422 -5.68624 -72.8971
LeftForeArm  45.517 -20.5545 -3.76637
LeftHand  0.214012 -5.95056 -4.49101
RightShoulder  0 2.42657e-020 1.07489e-018
RightArm  -40.5814 -0.84634 84.391
RightForeArm  48.707 22.7653 4.21508
RightHand  -1.16936 24.6563 -4.97807
LeftUpLeg  -23.7077 3.46868 -3.47837
LeftLeg  20.9533 -4.55625 -1.41733
LeftFoot  2.39797 0.00254887 -0.180476
LeftToes  -12.2221 1.28829e-006 1.15665e-007
522
root  11.2243 33.0447 3.45574 -3.16202 -75.8032 14.824
RightUpLeg  -20.1045 -20.6961 5.72306
RightLeg  37.3118 -13.3353 -8.73163
RightFoot  -13.4232 0.402801 3.79964
RightToes  -19.7989 -0.0805183 -0.175203
Spine  8.91913 -1.01878 -3.68675
Spine1  16.7349 -1.63299 -6.39921
HEad  -18.9055 -11.7579 23.6006
LeftShoulder1  0 -2.42657e-020 -4.95415e-022
LeftArm  -31.5522 -7.99953 -72.3974
LeftForeArm  45.647 -21.3224 -3.92154
LeftHand  0.223035 -6.23702 -4.46692
RightShoulder  0 2.42657e-020 1.07489e-018
RightArm  -39.2598 -0.0933504 84.1802
RightForeArm  47.0042 23.8493 4.44515
RightHand  -1.16455 24.7365 -4.9383
LeftUpLeg  -24.8727 5.20366 -3.18574
LeftLeg  21.0935 -4.96038 -1.55577
LeftFoot  2.62072 0.0055005 -0.240478
LeftToes  -13.8685 1.28829e-006 1.15665e-007
523
root  11.3713 32.9957 3.08287 -4.0834 -77.831 16.4634
RightUpLeg  -22.3344 -20.0596 3.57436
RightLeg  39.0261 -12.9025 -9.01074
RightFoot  -13.75 0.421954 3.87632
RightToes  -19.701 -0.079798 -0.174413
Spine  9.19742 -1.03328 -3.51401
Spine1  17.1541 -1.75395 -5.88912
HEad  -18.1516 -10.8809 23.0925
LeftShoulder1  0 -2.42657e-020 -4.95415e-022
LeftArm  -29.3834 -9.87869 -71.7971
LeftForeArm  45.3913 -22.4027 -4.14341
LeftHand  0.227348 -6.58814 -4.32298
RightShoulder  0 2.42657e-020 1.07489e-018
RightArm  -38.2617 0.785242 84.3317
RightForeArm  46.323 24.4842 4.58119
RightHand  -1.24669 24.7824 -5.30134
LeftUpLeg  -25.9898 7.61584 -2.87909
LeftLeg  21.5173 -5.40392 -1.73814
LeftFoot  2.60719 0.00660587 -0.290301
LeftToes  -15.3444 1.28829e-006 1.15665e-007
